<svg width="42" height="34" viewBox="0 0 42 34" fill="none" xmlns="http://www.w3.org/2000/svg">
<path d="M16.7363 17.3752C17.1465 17.7902 17.8113 17.7902 18.2214 17.3752L18.9637 16.6241C19.3738 16.2091 19.3738 15.5364 18.9637 15.1214L16.6195 12.75L18.963 10.378C19.3732 9.96293 19.3732 9.29023 18.963 8.8752L18.2208 8.12414C17.8106 7.7091 17.1458 7.7091 16.7357 8.12414L12.9071 11.9983C12.497 12.4133 12.497 13.086 12.9071 13.5011L16.7363 17.3752ZM23.037 16.6248L23.7792 17.3759C24.1894 17.7909 24.8542 17.7909 25.2643 17.3759L29.0929 13.5017C29.503 13.0867 29.503 12.414 29.0929 11.9989L25.2643 8.1248C24.8542 7.70977 24.1894 7.70977 23.7792 8.1248L23.037 8.87586C22.6268 9.2909 22.6268 9.96359 23.037 10.3786L25.3805 12.75L23.037 15.122C22.6268 15.5371 22.6268 16.2098 23.037 16.6248ZM40.95 27.625H25.0386C24.99 28.9405 24.0732 29.75 22.89 29.75H18.9C17.6735 29.75 16.7331 28.5899 16.7495 27.625H1.05C0.4725 27.625 0 28.1031 0 28.6875V29.75C0 32.0875 1.89 34 4.2 34H37.8C40.11 34 42 32.0875 42 29.75V28.6875C42 28.1031 41.5275 27.625 40.95 27.625ZM37.8 3.1875C37.8 1.43437 36.3825 0 34.65 0H7.35C5.6175 0 4.2 1.43437 4.2 3.1875V25.5H37.8V3.1875ZM33.6 21.25H8.4V4.25H33.6V21.25Z" fill="white"/>
</svg>
